<svg width="2222" height="1080" viewBox="0 0 2222 1080" fill="none" xmlns="http://www.w3.org/2000/svg">
<path d="M423.903 1077.63L2.02466 1.19312L687.033 1045.01L423.903 1077.63Z" fill="#32A8A0" fill-opacity="0.64"/>
<path d="M902.321 1031.97L141.201 136.02L1121.96 1001.52L902.321 1031.97Z" fill="#32A8A0" fill-opacity="0.64"/>
<path d="M1469.9 955.855L1291.58 986.3L371.712 314.34L1469.9 955.855Z" fill="#32A8A0" fill-opacity="0.64"/>
<path d="M767.494 510.056L1602.55 927.585L1765.65 886.267L950.163 540.501L767.494 510.056Z" fill="#32A8A0" fill-opacity="0.64"/>
<path d="M1093.69 575.295L1843.93 866.695L1965.71 810.155L1198.07 575.295H1093.69Z" fill="#32A8A0" fill-opacity="0.64"/>
<path d="M1265.48 575.295L2013.56 784.059L2087.49 738.392L1319.85 575.295H1265.48Z" fill="#32A8A0" fill-opacity="0.64"/>
<path d="M1409.01 575.295L2130.99 712.297L2172.3 670.979L1487.3 564.422L1409.01 575.295Z" fill="#32A8A0" fill-opacity="0.64"/>
<path d="M1537.31 553.549L2198.4 644.883L2217.97 597.041L1635.17 547.025L1537.31 553.549Z" fill="#32A8A0" fill-opacity="0.64"/>
<path d="M1656.92 538.326L2213.62 570.946V507.882L1717.81 520.929L1656.92 538.326Z" fill="#32A8A0" fill-opacity="0.64"/>
<path d="M1770 507.882L2189.7 488.31L2141.86 438.293L1791.74 488.31L1770 507.882Z" fill="#32A8A0" fill-opacity="0.64"/>
<path d="M2113.59 425.246L1804.79 477.437L1946.14 441.555L2037.48 386.102L2065.75 399.15L1946.14 441.555L2087.49 405.674L2113.59 425.246Z" fill="#32A8A0" fill-opacity="0.64"/>
<path d="M1928.75 438.293L2013.56 386.102L1991.81 373.055L1928.75 438.293Z" fill="#32A8A0" fill-opacity="0.64"/>
<path d="M1922.22 431.77L1970.06 373.055H1941.79L1922.22 431.77Z" fill="#32A8A0" fill-opacity="0.64"/>
<path fill-rule="evenodd" clip-rule="evenodd" d="M0 1.98664L3.84278 0L690.768 1046.74L422.494 1080L0 1.98664ZM11.68 19.8696L425.311 1075.27L683.297 1043.29L11.68 19.8696ZM139.544 137.428L142.64 134.39L1126.95 1003.03L901.437 1034.28L139.544 137.428ZM162.443 157.666L903.205 1029.65L1116.97 1000.02L162.443 157.666ZM370.429 316.096L372.808 312.462L1476.16 956.992L1291.04 988.598L370.429 316.096ZM407.324 337.662L1292.12 984.001L1463.64 954.717L407.324 337.662ZM1991.45 370.301L2017.74 386.079L1929.89 440.145L1927.18 436.782L1991.45 370.301ZM1940.23 370.88H1974.64L1923.91 433.143L1920.16 431.082L1940.23 370.88ZM1943.36 375.229L1928.04 421.183L1965.49 375.229H1943.36ZM1992.17 375.808L1942.3 427.396L2009.37 386.126L1992.17 375.808ZM2037.34 383.643L2071.51 399.414L1991.34 427.84L2087.97 403.31L2118.95 426.546L1805.15 479.581L1804.26 475.329L1945.29 439.528L2037.34 383.643ZM1965.35 432.439L2037.62 388.562L2059.98 398.886L1965.35 432.439ZM2087.02 408.038L1857.24 466.367L2108.23 423.946L2087.02 408.038ZM2142.66 435.983L2194.58 490.26L1764.02 510.337L1790.78 486.251L2142.66 435.983ZM1792.71 490.369L1775.98 505.426L2184.83 486.36L2141.06 440.604L1792.71 490.369ZM2215.8 505.649V573.251L1656.79 540.497L1656.32 536.235L1717.47 518.763L2215.8 505.649ZM1718.14 523.096L1669.81 536.904L2211.45 568.64V510.114L1718.14 523.096ZM766.521 512.001L767.851 507.911L950.774 538.398L1772.45 886.788L1602.3 929.891L766.521 512.001ZM781.402 514.579L1602.8 925.278L1758.85 885.746L949.551 542.604L781.402 514.579ZM1635.19 544.844L2221.1 595.127L2199.77 647.268L1537.01 555.703L1537.17 551.379L1635.19 544.844ZM1558.67 554.304L2197.03 642.498L2214.84 598.955L1635.15 549.206L1558.67 554.304ZM1487.31 562.224L2176.87 669.488L2131.71 714.647L1408.6 577.431L1408.71 573.141L1487.31 562.224ZM1422.42 575.627L2130.26 709.946L2167.74 672.469L1487.28 566.62L1422.42 575.627ZM1092.9 577.322L1093.69 573.12H1198.4L1971.78 809.736L1844.01 869.058L1092.9 577.322ZM1105.29 577.47L1843.86 864.333L1959.65 810.573L1197.75 577.47H1105.29ZM1264.9 577.39L1265.48 573.12H1320.08L2093.25 737.392L2013.89 786.41L1264.9 577.39ZM1281.37 577.47L2013.22 781.709L2081.74 739.392L1319.62 577.47H1281.37Z" fill="#38AEA6"/>
<path d="M480.949 568.197C534.033 568.197 569.445 559.127 587.184 540.988C605.057 522.849 613.993 500.975 613.993 475.366C613.993 452.426 606.857 436.287 592.586 426.951C578.315 417.614 549.972 409.145 507.558 401.542C485.417 397.674 467.478 394.54 453.74 392.139C440.136 389.738 433.334 383.67 433.334 373.933C433.334 366.997 437.668 362.196 446.338 359.528C455.007 356.727 465.611 355.327 478.148 355.327C489.219 355.327 499.289 357.061 508.358 360.529C517.561 363.996 522.163 373.866 522.163 390.138H613.593C613.593 363.996 604.323 341.456 585.784 322.516C567.244 303.577 531.699 294.107 479.149 294.107C426.465 294.107 390.92 303.043 372.514 320.916C354.241 338.655 345.105 359.862 345.105 384.537C345.105 408.144 352.44 425.083 367.112 435.353C381.917 445.623 409.793 454.693 450.739 462.562C473.28 466.03 491.153 469.098 504.357 471.765C517.561 474.433 524.164 479.968 524.164 488.371C524.164 495.84 519.829 500.841 511.159 503.376C502.49 505.776 492.22 506.977 480.349 506.977C468.345 506.977 458.008 505.243 449.339 501.775C440.669 498.174 436.335 488.104 436.335 471.565H344.905C344.905 499.308 353.974 522.382 372.113 540.788C390.253 559.061 426.531 568.197 480.949 568.197Z" fill="#0655A1"/>
<path d="M615.662 566.596H709.693L723.298 508.777H801.724L815.328 566.596H909.359L826.732 296.508H698.089L615.662 566.596ZM737.903 449.158L762.311 349.325H763.111L787.319 449.158H737.903Z" fill="#0655A1"/>
<path d="M1038.83 568.197C1094.05 568.197 1130.06 556.26 1146.87 532.385C1163.8 508.377 1172.27 482.502 1172.27 454.76H1079.84C1079.84 477.567 1076.11 491.905 1068.64 497.774C1061.17 503.642 1050.97 506.577 1038.03 506.577C1024.69 506.577 1013.75 503.109 1005.22 496.173C996.683 489.238 992.414 467.43 992.414 430.752C992.414 394.473 996.683 372.933 1005.22 366.13C1013.75 359.195 1024.69 355.727 1038.03 355.727C1051.1 355.727 1061.3 358.595 1068.64 364.33C1076.11 369.932 1079.84 384.403 1079.84 407.744H1172.27C1172.27 379.068 1163.8 352.993 1146.87 329.518C1130.06 305.911 1093.98 294.107 1038.63 294.107C983.812 294.107 946.999 306.311 928.193 330.719C909.387 355.127 899.984 388.471 899.984 430.752C899.984 473.032 909.387 506.51 928.193 531.185C946.999 555.86 983.878 568.197 1038.83 568.197Z" fill="#0655A1"/>
<path d="M1162.64 566.596H1256.67L1270.27 508.777H1348.7L1362.3 566.596H1456.34L1373.71 296.508H1245.07L1162.64 566.596ZM1284.88 449.158L1309.29 349.325H1310.09L1334.3 449.158H1284.88Z" fill="#0655A1"/>
<path d="M1469.25 566.596H1629.5C1669.92 566.596 1697.59 556.326 1712.53 535.786C1727.6 515.113 1735.14 480.301 1735.14 431.352C1735.14 382.403 1727.6 347.724 1712.53 327.318C1697.59 306.778 1669.92 296.508 1629.5 296.508H1469.25V566.596ZM1560.48 504.976V358.128H1604.49C1618.37 358.128 1628.37 361.396 1634.5 367.931C1640.77 374.333 1643.91 395.473 1643.91 431.352C1643.91 467.497 1640.77 488.838 1634.5 495.373C1628.37 501.775 1618.37 504.976 1604.49 504.976H1560.48Z" fill="#0655A1"/>
<path d="M1723.29 566.596H1817.32L1830.93 508.777H1909.35L1922.96 566.596H2016.99L1934.36 296.508H1805.72L1723.29 566.596ZM1845.53 449.158L1869.94 349.325H1870.74L1894.95 449.158H1845.53Z" fill="#0655A1"/>
<g filter="url(#filter0_d_11_12)">
<path d="M758.273 798.221C796.686 798.221 821.738 789.916 833.429 773.308C845.212 756.607 851.104 738.607 851.104 719.308H786.805C786.805 735.174 784.207 745.148 779.011 749.23C773.815 753.313 766.717 755.354 757.717 755.354C748.438 755.354 740.83 752.942 734.892 748.117C728.954 743.292 725.985 728.122 725.985 702.606C725.985 677.369 728.954 662.385 734.892 657.653C740.83 652.828 748.438 650.415 757.717 650.415C766.81 650.415 773.908 652.41 779.011 656.4C784.207 660.297 786.805 670.364 786.805 686.601H851.104C851.104 666.653 845.212 648.513 833.429 632.183C821.738 615.76 796.64 607.549 758.134 607.549C720 607.549 694.392 616.039 681.309 633.018C668.226 649.998 661.685 673.194 661.685 702.606C661.685 732.019 668.226 755.308 681.309 772.473C694.392 789.638 720.046 798.221 758.273 798.221Z" fill="#1B80E6"/>
<path d="M888.281 797.107H1023V754.519H951.885V609.219H888.281V797.107Z" fill="#1B80E6"/>
<path d="M1058.84 797.107H1207.34V754.241H1122.44V723.065H1200.38V682.287H1122.44V652.085H1207.34V609.219H1058.84V797.107Z" fill="#1B80E6"/>
<path d="M1238.63 797.107H1304.04L1313.51 756.885H1368.06L1377.53 797.107H1442.94L1385.46 609.219H1295.97L1238.63 797.107ZM1323.67 715.411L1340.65 645.962H1341.2L1358.04 715.411H1323.67Z" fill="#1B80E6"/>
<path d="M1476.98 797.107H1540.16V638.307H1532.51L1592.63 797.107H1693.81V609.219H1630.49L1629.93 767.323H1639.39L1579.13 609.219H1476.98V797.107Z" fill="#1B80E6"/>
</g>
<defs>
<filter id="filter0_d_11_12" x="657.685" y="607.549" width="1040.13" height="198.671" filterUnits="userSpaceOnUse" color-interpolation-filters="sRGB">
<feFlood flood-opacity="0" result="BackgroundImageFix"/>
<feColorMatrix in="SourceAlpha" type="matrix" values="0 0 0 0 0 0 0 0 0 0 0 0 0 0 0 0 0 0 127 0" result="hardAlpha"/>
<feOffset dy="4"/>
<feGaussianBlur stdDeviation="2"/>
<feComposite in2="hardAlpha" operator="out"/>
<feColorMatrix type="matrix" values="0 0 0 0 0 0 0 0 0 0 0 0 0 0 0 0 0 0 0.25 0"/>
<feBlend mode="normal" in2="BackgroundImageFix" result="effect1_dropShadow_11_12"/>
<feBlend mode="normal" in="SourceGraphic" in2="effect1_dropShadow_11_12" result="shape"/>
</filter>
</defs>
</svg>
